<?xml version="1.0" encoding="UTF-8"?><svg id="Layer_2" xmlns="http://www.w3.org/2000/svg" viewBox="0 0 346.05 868.55"><defs><style>.cls-1{fill:rgba(241,251,255,.56);stroke:rgba(189,204,212,.08);stroke-width:4px;}.cls-1,.cls-2{stroke-miterlimit:10;}.cls-3{fill:#a9272d;}.cls-4{fill:#83272d;}.cls-5{fill:#cee9ff;opacity:.73;}.cls-2{fill:none;stroke:#006837;stroke-linecap:round;stroke-width:7px;}.cls-6{fill:#99272d;}</style></defs><g id="vase"><g id="flower3"><path id="stem2" class="cls-2" d="M198.02,548.82c7.98-31.2,34.94-143.06,42.8-224.8,12.39-128.89-13.46-209.22-18.45-225"/><g><g><path class="cls-6" d="M214.09,91.65c20.33-22.28,14.32-64.02-1.24-79.35-13.13-12.93-39.27-17.5-51.83-4.71-12.61,12.84-4.86,36.38,3.56,48.81,14.66,21.66,46.28,35.05,49.51,35.24Z"/><path class="cls-4" d="M217.25,90.14c-10.74-28.18-50.72-41.61-71.41-34.62-17.45,5.9-33.31,27.18-27.54,44.16,5.79,17.04,30.3,20.72,45.19,18.8,25.94-3.34,52.14-25.54,53.76-28.34Z"/><path class="cls-4" d="M214.7,86.93c29.02,8.2,63.66-15.85,70.4-36.62,5.69-17.52-1.93-42.95-18.99-48.45-17.12-5.53-34.71,11.94-42.06,25.03-12.8,22.8-10.63,57.08-9.36,60.05Z"/></g><g><path class="cls-3" d="M222.25,108.16c30.72-9.04,48.24-50.25,42.54-72.72-4.8-18.96-26.02-37.5-44.46-32.8-18.51,4.72-24.43,30.36-23.63,46.28,1.39,27.73,22.73,57.3,25.55,59.24Z"/><path class="cls-3" d="M225.95,108.52c5.76-31.5-23.15-65.7-45.78-70.73-19.09-4.25-45.2,6.35-49.3,24.93-4.12,18.65,16.1,35.48,30.68,41.94,25.39,11.24,61.39,5.5,64.4,3.86Z"/></g><g><path class="cls-4" d="M224.52,110.76c19.23-21.08,13.55-60.58-1.17-75.07-12.42-12.23-37.15-16.56-49.03-4.45-11.93,12.15-4.6,34.42,3.37,46.18,13.87,20.49,43.79,33.16,46.84,33.34Z"/><path class="cls-6" d="M227.51,109.33c-10.16-26.67-47.99-39.37-67.56-32.76-16.51,5.58-31.51,25.72-26.06,41.78,5.48,16.12,28.66,19.6,42.75,17.79,24.54-3.16,49.33-24.17,50.86-26.81Z"/><path class="cls-6" d="M225.99,109.89c27.46,7.76,60.23-15,66.61-34.65,5.38-16.58-1.82-40.63-17.96-45.84-16.2-5.23-32.84,11.3-39.79,23.68-12.11,21.57-10.06,54-8.85,56.81Z"/></g></g></g><g id="flower1"><path id="stem3" class="cls-2" d="M236.83,618.15c-5.65-27.45-24.01-112.85-56.78-207.22-36.59-105.37-66.3-150.37-74.07-161.57"/><g><g><path class="cls-6" d="M103.23,246.6c-28.56,9.7-64.4-12.52-72.21-32.92-6.59-17.2-.31-42.99,16.44-49.37,16.81-6.41,35.28,10.12,43.3,22.81,13.97,22.11,13.58,56.45,12.47,59.48Z"/><path class="cls-4" d="M100.58,248.89c-21.52-21.13-17.82-63.14-3.13-79.3,12.39-13.63,38.25-19.63,51.49-7.55,13.29,12.13,6.85,36.06-.87,48.94-13.45,22.43-44.29,37.54-47.49,37.91Z"/><path class="cls-4" d="M98.66,245.27c-4.11,29.88-40.02,51.99-61.75,49.84-18.33-1.81-38.58-18.97-36.79-36.8,1.79-17.9,24.84-27.02,39.78-28.51,26.02-2.6,56.56,13.12,58.77,15.47Z"/></g><g><path class="cls-3" d="M115.09,260.69c-20.59,24.53-65.36,24.07-83.68,9.86-15.45-11.99-23.94-38.86-12.24-53.88,11.74-15.07,37.6-10.23,51.87-3.12,24.85,12.38,43.4,43.78,44.05,47.14Z"/><path class="cls-3" d="M113.94,264.22c-31.17-7.34-50.93-47.52-46.48-70.27,3.75-19.19,23.92-38.87,42.59-35.19,18.74,3.69,26.06,28.97,26.14,44.91,.13,27.77-19.55,58.46-22.26,60.56Z"/></g><g><path class="cls-4" d="M116.56,263.82c-27.02,9.18-60.93-11.85-68.32-31.14-6.23-16.28-.29-40.67,15.56-46.71,15.91-6.06,33.38,9.57,40.97,21.58,13.22,20.92,12.85,53.41,11.79,56.27Z"/><path class="cls-6" d="M114.05,265.98c-20.36-19.99-16.86-59.74-2.96-75.02,11.73-12.89,36.19-18.57,48.71-7.14,12.58,11.47,6.48,34.12-.82,46.3-12.72,21.22-41.9,35.52-44.94,35.87Z"/><path class="cls-6" d="M115.17,264.82c-3.89,28.27-37.87,49.18-58.43,47.16-17.34-1.71-36.5-17.94-34.81-34.82,1.7-16.94,23.5-25.56,37.64-26.98,24.62-2.46,53.51,12.41,55.6,14.64Z"/></g></g></g><g id="flower2"><path id="stem1" class="cls-2" d="M167.56,730.25c19.79-66.51,19.1-109.6,25.27-214.75,4.66-79.44,2.47-191.51-2.76-248.97"/><g><g><path class="cls-6" d="M195.61,348.89c-29.13-7.83-46.54-46.24-41.68-67.53,4.1-17.96,23.67-35.89,41.14-31.87,17.54,4.03,23.68,28.04,23.28,43.05-.69,26.14-20.13,54.46-22.74,56.35Z"/><path class="cls-4" d="M192.13,349.31c-6.12-29.53,20.33-62.38,41.53-67.62,17.88-4.43,42.7,4.97,46.98,22.38,4.3,17.47-14.38,33.77-27.96,40.17-23.66,11.15-57.69,6.55-60.56,5.07Z"/><path class="cls-4" d="M192.55,345.24c-20.04,22.54-62.18,20.92-79.04,7.04-14.23-11.7-21.5-37.23-10.09-51.05,11.45-13.88,35.68-8.63,48.92-1.55,23.07,12.32,39.69,42.37,40.22,45.56Z"/></g><g><path class="cls-3" d="M197.62,367.19c-30.76,8.92-67.7-16.37-75.01-38.38-6.16-18.56,1.74-45.61,19.81-51.58,18.14-5.99,36.93,12.43,44.83,26.27,13.76,24.12,11.69,60.52,10.36,63.68Z"/><path class="cls-3" d="M194.7,369.49c-21.81-23.45-15.87-67.82,.49-84.25,13.8-13.86,41.51-18.98,54.97-5.54,13.52,13.5,5.53,38.57-3.27,51.86-15.34,23.14-48.77,37.69-52.19,37.93Z"/></g><g><path class="cls-4" d="M197.1,370.61c-27.56-7.41-44.03-43.75-39.43-63.89,3.88-16.99,22.39-33.95,38.92-30.15,16.59,3.81,22.41,26.53,22.03,40.73-.66,24.73-19.05,51.52-21.52,53.32Z"/><path class="cls-6" d="M193.82,371.01c-5.79-27.94,19.24-59.01,39.3-63.98,16.92-4.19,40.4,4.71,44.45,21.17,4.06,16.53-13.6,31.95-26.45,38.01-22.38,10.55-54.58,6.19-57.3,4.79Z"/><path class="cls-6" d="M195.4,370.67c-18.96,21.33-58.83,19.79-74.79,6.66-13.46-11.07-20.34-35.22-9.55-48.3,10.84-13.13,33.75-8.16,46.28-1.47,21.82,11.66,37.55,40.09,38.05,43.11Z"/></g></g></g><g id="vase-2"><path class="cls-5" d="M189.46,865.66l-24.68-.26c-7.39-.07-14.47-2.86-19.98-7.77-29.66-26.39-48.56-68-48.07-114.63,.14-13.34,1.87-26.25,4.96-38.47,.62-2.46,1.3-4.9,2.04-7.31,.18-.6,.37-1.2,.56-1.8,.19-.59,.38-1.19,.58-1.78,.19-.6,.39-1.19,.6-1.78,.23-.67,.46-1.34,.7-2,.18-.51,.37-1.01,.56-1.52,.21-.58,.43-1.16,.66-1.74,.44-1.16,.9-2.31,1.37-3.45,.24-.57,.47-1.14,.72-1.7,.24-.57,.49-1.13,.74-1.7,.24-.56,.5-1.12,.75-1.67,.26-.56,.51-1.12,.77-1.67s.53-1.1,.8-1.65c.55-1.15,1.12-2.28,1.7-3.4,.53-1.04,1.08-2.06,1.64-3.08,.47-.87,.96-1.73,1.46-2.58,.17-.32,.35-.64,.55-.96,.52-.91,1.07-1.82,1.62-2.71,.31-.51,.63-1.02,.95-1.52,.32-.51,.64-1.01,.96-1.51,.33-.5,.66-1,.99-1.5,.33-.49,.66-.99,1-1.48,.49-.72,.99-1.44,1.5-2.15,.39-.55,.78-1.09,1.18-1.63,.97-1.34,1.97-2.65,2.99-3.94,.04-.05,.09-.11,.13-.16,.33-.41,.65-.81,.98-1.22l7.03,22.85,32.97-14.69,18.06,26.06-13.1-46.29-28.78,16.77-7.34-14.6c.89-.9,1.79-1.79,2.7-2.66l1.02-.96c.42-.4,.84-.79,1.27-1.17,.27-.25,.55-.5,.82-.74,.66-.6,1.32-1.18,1.99-1.75,.35-.31,.71-.61,1.07-.91,.53-.44,1.06-.88,1.59-1.32,.31-.25,.63-.51,.94-.75,.52-.42,1.05-.84,1.58-1.24,.03-.03,.07-.05,.1-.08,.38-.29,.76-.59,1.15-.87,.91-.69,1.82-1.36,2.75-2.01,.28-.21,.57-.4,.85-.6,.01-.01,.03-.02,.04-.03,.4-.28,.8-.56,1.21-.83,.58-.4,1.17-.78,1.76-1.17,.59-.39,1.19-.77,1.79-1.15,.77-.49,1.55-.96,2.34-1.43,.44-.26,.88-.52,1.32-.77,.72-.42,1.44-.83,2.17-1.23,4.31-2.37,6.07-7.63,4.02-12.09l-46.44-101.04c-1.28-2.79,.39-6.25,3.02-6.22l49.47,.52c-.28,8.53-.13,18.17,.63,29.21,3.71,53.61,14.44,81.14,17.71,130.14,4.39,65.64-.73,93.39-7.38,154.74-2.68,24.66-1.35,41.36,.94,55.05Z"/><path class="cls-1" d="M273.43,866.55l-83.97-.89-24.68-.26c-7.39-.07-14.47-2.86-19.98-7.77-29.66-26.39-48.56-68-48.07-114.63,.14-13.34,1.87-26.25,4.96-38.47,.62-2.46,1.3-4.9,2.04-7.31,.18-.6,.37-1.2,.56-1.8,.19-.59,.38-1.19,.58-1.78,.19-.6,.39-1.19,.6-1.78,.23-.67,.46-1.34,.7-2,.18-.51,.37-1.01,.56-1.52,.21-.58,.43-1.16,.66-1.74,.44-1.16,.9-2.31,1.37-3.45,.24-.57,.47-1.14,.72-1.7,.24-.57,.49-1.13,.74-1.7,.24-.56,.5-1.12,.75-1.67,.26-.56,.51-1.12,.77-1.67s.53-1.1,.8-1.65c.55-1.15,1.12-2.28,1.7-3.4,.53-1.04,1.08-2.06,1.64-3.08,.47-.87,.96-1.73,1.46-2.58,.17-.32,.35-.64,.55-.96,.52-.91,1.07-1.82,1.62-2.71,.31-.51,.63-1.02,.95-1.52,.32-.51,.64-1.01,.96-1.51,.33-.5,.66-1,.99-1.5,.33-.49,.66-.99,1-1.48,.49-.72,.99-1.44,1.5-2.15,.39-.55,.78-1.09,1.18-1.63,.97-1.34,1.97-2.65,2.99-3.94,.04-.05,.09-.11,.13-.16,.33-.41,.65-.81,.98-1.22l7.03,22.85,32.97-14.69,18.06,26.06-13.1-46.29-28.78,16.77-7.34-14.6c.89-.9,1.79-1.79,2.7-2.66l1.02-.96c.42-.4,.84-.79,1.27-1.17,.27-.25,.55-.5,.82-.74,.66-.6,1.32-1.18,1.99-1.75,.35-.31,.71-.61,1.07-.91,.53-.44,1.06-.88,1.59-1.32,.31-.25,.63-.51,.94-.75,.52-.42,1.05-.84,1.58-1.24,.03-.03,.07-.05,.1-.08,.38-.29,.76-.59,1.15-.87,.91-.69,1.82-1.36,2.75-2.01,.28-.21,.57-.4,.85-.6,.01-.01,.03-.02,.04-.03,.4-.28,.8-.56,1.21-.83,.58-.4,1.17-.78,1.76-1.17,.59-.39,1.19-.77,1.79-1.15,.77-.49,1.55-.96,2.34-1.43,.44-.26,.88-.52,1.32-.77,.72-.42,1.44-.83,2.17-1.23,4.31-2.37,6.07-7.63,4.02-12.09l-46.44-101.04c-1.28-2.79,.39-6.25,3.02-6.22l49.47,.52,87.53,.92-3.12,1.8,16.13,21.49-15.91,17.43,31.42-17.19-16.95-18.1,6.34-5.24,35.11,.37c2.62,.03,4.23,3.53,2.89,6.29l-48.57,100.03c-.63,1.29-.93,2.66-.95,4.01-.03,3.31,1.69,6.52,4.73,8.3,27.42,15.95,48.92,43.35,59.88,76.73,5.31,16.22,8.14,33.84,7.95,52.25-.04,3.33-.17,6.63-.4,9.9l-34.47-17.95-14.84,39.48-36.51-6.36,49.27,27.1,9.67-37.71,25.48,8.25c-5.57,37.38-23.69,69.77-49.1,91.24-5.49,4.64-12.52,7.07-19.71,6.99Z"/></g></g></svg>