<svg xmlns="http://www.w3.org/2000/svg" viewBox="0 0 831 768"><defs><style>.cls-1{fill:none;stroke:#006837;stroke-linecap:round;stroke-width:7px;}.cls-1,.cls-6{stroke-miterlimit:10;}.cls-2{fill:#99272d;}.cls-3{fill:#83272d;}.cls-4{fill:#a9272d;}.cls-5{fill:#cee9ff;opacity:0.73;}.cls-6{fill:#f1fbff;fill-opacity:0.56;stroke:#bdccd4;stroke-opacity:0.08;stroke-width:4px;}</style></defs><g id="flowers"><g id="flower1"><path id="stem3" class="cls-1" d="M359.89,635c5.42-28,19.7-115.23-6.29-214.85C324.58,308.92,265.07,257.82,249,245"/><path class="cls-2" d="M250.52,237.56c-28.81,8.91-64-14.29-71.28-34.89-6.11-17.38.88-43,17.79-48.9s35,11.08,42.66,24C253.05,200.24,251.72,234.56,250.52,237.56Z"/><path class="cls-3" d="M247.81,239.77c-20.94-21.72-16.08-63.61-.95-79.36,12.76-13.28,38.77-18.57,51.68-6.13s5.86,36.23-2.22,48.89C282.27,225.22,251,239.49,247.81,239.77Z"/><path class="cls-3" d="M246,236.1c-4.93,29.76-41.43,50.87-63.1,48.13-18.28-2.31-38-20-35.77-37.8S172.69,220.1,187.67,219C213.75,217.14,243.84,233.69,246,236.1Z"/><path class="cls-4" d="M262,252c-21.25,24-66,22.27-83.91,7.56C163,247.11,155.22,220,167.32,205.33s37.87-9.2,51.93-1.7C243.75,216.69,261.43,248.58,262,252Z"/><path class="cls-4" d="M260.75,255.46c-31-8.19-49.61-48.9-44.54-71.52,4.28-19.09,25-38.2,43.54-34s25.26,29.67,24.9,45.61C284,223.29,263.51,253.44,260.75,255.46Z"/><path class="cls-3" d="M263.38,255.13c-27.26,8.43-60.58-13.52-67.44-33-5.79-16.44.82-40.66,16.83-46.26s33.11,10.48,40.36,22.69C265.77,219.82,264.51,252.29,263.38,255.13Z"/><path class="cls-2" d="M260.81,257.22c-19.81-20.54-15.21-60.18-.9-75.08,12.08-12.56,36.68-17.57,48.89-5.8s5.55,34.28-2.09,46.26C293.41,243.46,263.85,257,260.81,257.22Z"/><path class="cls-2" d="M262,256.09c-4.66,28.15-39.2,48.13-59.69,45.53-17.3-2.18-36-18.93-33.85-35.76s24.2-24.91,38.36-25.93C231.46,238.15,259.93,253.81,262,256.09Z"/></g><g id="flower2"><path id="stem1" class="cls-1" d="M366.5,669.5c19.08-66.71,17.94-109.8,23-215C393.32,375,390,263,384.11,205.57"/><path class="cls-2" d="M390.52,287.87c-29.21-7.53-47-45.75-42.39-67.09,3.91-18,23.29-36.14,40.8-32.31s24,27.79,23.74,42.81C412.25,257.42,393.11,285.94,390.52,287.87Z"/><path class="cls-3" d="M387.05,288.33c-6.43-29.47,19.67-62.59,40.82-68.06,17.83-4.62,42.75,4.52,47.21,21.88s-14,33.92-27.53,40.47C424,294,389.94,289.77,387.05,288.33Z"/><path class="cls-3" d="M387.42,284.25c-19.8,22.75-62,21.58-79,7.88-14.35-11.55-21.89-37-10.63-50.94s35.58-9,48.9-2.07C369.92,251.19,386.86,281.07,387.42,284.25Z"/><path class="cls-4" d="M392.73,306.15c-30.66,9.24-67.87-15.66-75.41-37.58-6.36-18.5,1.26-45.63,19.27-51.79s37.06,12,45.1,25.8C395.7,266.55,394,303,392.73,306.15Z"/><path class="cls-4" d="M389.83,308.48c-22.06-23.22-16.58-67.66-.4-84.26,13.66-14,41.31-19.42,54.91-6.11s6,38.51-2.72,51.89C426.53,293.3,393.25,308.2,389.83,308.48Z"/><path class="cls-3" d="M392.25,309.57c-27.64-7.12-44.49-43.28-40.11-63.47,3.7-17,22-34.19,38.6-30.57s22.69,26.3,22.46,40.5C412.8,280.77,394.7,307.75,392.25,309.57Z"/><path class="cls-2" d="M389,310c-6.08-27.88,18.62-59.22,38.62-64.39,16.87-4.37,40.45,4.28,44.67,20.7s-13.26,32.09-26,38.29C423.94,315.39,391.69,311.38,389,310Z"/><path class="cls-2" d="M390.54,309.65c-18.74,21.52-58.62,20.41-74.71,7.45-13.58-10.93-20.71-35-10.06-48.2S339.44,260.39,352,267C374,278.37,390,306.64,390.54,309.65Z"/></g><g id="flower3"><path id="stem2" class="cls-1" d="M420.88,678c-5.41-32.1-21.38-146.92-8.38-228.81C433,320.07,515.7,245.31,531.77,230.61"/><path class="cls-2" d="M537.74,234.37c-6.61-29.42,19.29-62.7,40.4-68.3,17.8-4.73,42.78,4.26,47.35,21.59s-13.81,34-27.28,40.63C574.74,239.84,540.64,235.81,537.74,234.37Z"/><path class="cls-3" d="M535.75,231.49c23.3-19.15,64.68-11,79.18,5.31,12.24,13.78,15.46,40.12,2.05,52s-36.59,3-48.57-6.05C547.53,267,535.78,234.72,535.75,231.49Z"/><path class="cls-3" d="M539.55,230c-29.28-7.26-47.44-45.31-43-66.7,3.75-18,23-36.35,40.5-32.68s24.24,27.57,24.13,42.59C561,199.33,542.12,228,539.55,230Z"/><path class="cls-4" d="M522.48,244.67c-22.21-23.07-17-67.54-.92-84.25,13.56-14.08,41.18-19.67,54.87-6.45s6.18,38.47-2.4,51.91C559.08,229.27,525.89,244.38,522.48,244.67Z"/><path class="cls-4" d="M519.08,243.15c10.61-30.21,52.66-45.59,74.82-38.75,18.68,5.77,36.11,27.91,30.47,46.09s-31.57,22.84-47.43,21.22C549.32,268.9,520.88,246.07,519.08,243.15Z"/><path class="cls-3" d="M519.21,245.8C513,218,537.46,186.48,557.43,181.18c16.84-4.47,40.47,4,44.8,20.42s-13.07,32.18-25.81,38.45C554.22,251,522,247.16,519.21,245.8Z"/><path class="cls-2" d="M517.33,243.08c22-18.13,61.19-10.42,74.91,5,11.58,13,14.63,38,1.93,49.2s-34.61,2.83-45.95-5.73C528.47,276.67,517.35,246.14,517.33,243.08Z"/><path class="cls-2" d="M518.36,244.32c-27.69-6.87-44.88-42.87-40.68-63.1,3.54-17.07,21.72-34.39,38.31-30.92s22.93,26.08,22.83,40.29C538.66,215.33,520.8,242.48,518.36,244.32Z"/></g></g><g id="vase"><path id="water" class="cls-5" d="M512.32,606.32c0,46.85-19.53,88.44-49.69,114.48A30,30,0,0,1,443,728H334.34a30.53,30.53,0,0,1-20.07-7.57C284.34,694.37,265,653,265,606.32a164.1,164.1,0,0,1,4.55-38.52,76.62,76.62,0,0,0,25.54.53c31.86-4.16,48.25-17,77.37-20.63,39-4.91,55.49,1.43,91.92,9.83,18.9,4.35,29.94.58,39.44-3.37A162.08,162.08,0,0,1,512.32,606.32Z"/><path id="vase-2" data-name="vase" class="cls-6" d="M512.32,606.32c0,46.85-19.53,88.44-49.69,114.48A30,30,0,0,1,443,728H334.34a30.53,30.53,0,0,1-20.07-7.57C284.34,694.37,265,653,265,606.32a164.1,164.1,0,0,1,4.55-38.52c9.56-39.54,33.48-72.15,64.86-89.87a9.34,9.34,0,0,0,3.89-12.13L290.8,365.26c-1.32-2.78.32-6.26,2.95-6.26h190c2.63,0,4.28,3.48,3,6.26L439.22,465.8a9.37,9.37,0,0,0-.9,4,9.49,9.49,0,0,0,4.82,8.25c27.58,15.66,49.37,42.84,60.68,76.1A162.08,162.08,0,0,1,512.32,606.32Z"/></g></svg>